<svg width="584" height="638" viewBox="0 0 584 638" fill="none" xmlns="http://www.w3.org/2000/svg">
    <path
        d="M35.926 196.287C20.773 172.932 13.0237 144.474 18.4601 115.631C21.041 101.874 26.3126 88.7617 33.9719 77.0465C41.6316 65.3313 51.5286 55.2437 63.0954 47.3619C74.6622 39.48 87.6712 33.9593 101.376 31.1161C115.081 28.273 129.213 28.1634 142.96 30.7938C156.708 33.4242 169.801 38.7426 181.489 46.4441C193.176 54.1457 203.228 64.0788 211.069 75.6741C218.909 87.269 224.383 100.298 227.177 114.013C229.97 127.728 230.029 141.86 227.349 155.598C220.432 192.503 200.369 217.568 161.209 235.3C142.275 243.879 71.0687 250.447 35.926 196.287ZM68.508 120.287C71.0381 128.549 75.6277 136.033 81.8456 142.034C88.0631 148.035 95.7047 152.356 104.052 154.591C112.399 156.827 121.177 156.903 129.562 154.812C137.946 152.722 145.662 148.534 151.982 142.642C188.147 108.909 159.019 48.4841 109.644 55.3738C102.437 56.4574 95.5469 59.0777 89.441 63.057C83.3352 67.0363 78.156 72.2819 74.255 78.4382C70.3537 84.5942 67.8215 91.5172 66.83 98.7376C65.8384 105.958 66.4108 113.307 68.508 120.287ZM85.2488 229.463C84.9949 230.329 85.7719 230.512 86.5765 230.779C137.995 247.819 184.944 228.821 209.351 190.178C209.985 189.181 210.034 188.933 209.119 188.195C176.815 156.675 96.4062 178.372 85.2488 229.463Z"
        fill="white" />
    <path
        d="M151.639 66.2169C142.76 58.2868 131.429 53.6432 119.539 53.062C107.648 52.4808 95.9183 55.9971 86.3083 63.0236C76.6984 70.05 69.7904 80.1611 66.7382 91.6679C63.686 103.175 64.6744 115.38 69.5384 126.246C74.4024 137.112 82.8475 145.979 93.4628 151.368C104.078 156.757 116.221 158.34 127.863 155.853C139.505 153.366 149.941 146.959 157.428 137.704C164.916 128.448 169 116.904 169 104.999C169.007 97.6758 167.463 90.4338 164.471 83.7496C161.479 77.0653 157.106 71.0902 151.639 66.2169ZM131.538 67.6652C136.878 69.7501 141.71 72.9563 145.705 77.0676C149.701 81.1789 152.769 86.0995 154.701 91.4974C152.757 91.9373 150.833 92.414 148.898 92.8631L144.205 94.0547L139.549 95.2555C138.247 95.6222 136.918 95.8971 135.598 96.1721L120.437 85.1727C120.291 84.0727 120.135 82.9728 120.052 81.8728L119.631 77.0606L119.127 72.2483C118.833 69.8101 118.549 67.381 118.21 64.9153C122.777 65.0607 127.286 65.9909 131.538 67.6652ZM116.872 64.9153C116.533 67.3535 116.239 69.7918 115.955 72.2483L115.433 77.0606L115.002 81.8728C114.91 83.0094 114.754 84.1461 114.589 85.2827L99.3184 96.4013H99.1717C97.5951 96.0346 96.0002 95.7321 94.4511 95.2922L89.7947 94.0272L85.1016 92.8356C83.1675 92.3773 81.2334 91.919 79.2902 91.4699C82.0762 83.7155 87.1822 77.007 93.9143 72.256C100.646 67.5051 108.678 64.9421 116.918 64.9153H116.872ZM76.9161 104.999C76.9171 100.939 77.5352 96.9025 78.7494 93.0281C80.5001 93.9447 82.26 94.8614 84.0108 95.778L88.3556 97.9137L92.7187 99.9853C94.1761 100.654 95.5877 101.461 97.0268 102.203L97.6134 102.497L103.553 120.829C102.957 121.553 102.343 122.278 101.72 122.956L98.4567 126.531L95.2761 130.197C93.7911 131.93 92.297 133.662 90.8304 135.422C86.4536 131.655 82.9437 126.986 80.5419 121.734C78.1401 116.483 76.9032 110.774 76.9161 104.999ZM116.991 145.074C107.886 145.086 99.0522 141.981 91.9579 136.274C93.7911 135 95.5785 133.699 97.3751 132.406L101.262 129.528L105.093 126.576C106.358 125.587 107.715 124.743 109.035 123.762L109.319 123.561H126.414L126.698 123.762C128.018 124.679 129.384 125.596 130.639 126.576L134.471 129.528L138.357 132.406C139.842 133.479 141.327 134.551 142.83 135.605C135.616 141.725 126.461 145.081 117 145.074H116.991ZM144.178 134.423C142.956 132.974 141.734 131.535 140.511 130.105L137.322 126.439L134.068 122.864C133.279 122.03 132.555 121.141 131.813 120.252L137.853 101.69C138.99 101.085 140.126 100.462 141.29 99.9303L145.663 97.9137L149.998 95.7688C151.758 94.8522 153.509 93.9356 155.26 93.0189C157.53 100.261 157.693 107.999 155.731 115.33C153.768 122.661 149.762 129.283 144.178 134.423Z"
        fill="#E9622B" />
    <path
        d="M45.7029 560.602C89.0967 548.72 195.192 535.629 239.871 530.348C347.162 517.667 458.877 507.052 565.997 502.092C566.322 502.089 566.637 502.212 566.875 502.435C567.114 502.655 567.255 502.961 567.273 503.285C567.291 503.613 567.181 503.931 566.97 504.179C566.759 504.427 566.459 504.583 566.135 504.613C432.726 513.485 124.836 546.04 46.8991 565.757C45.2899 566.161 44.1151 561.037 45.7029 560.602Z"
        fill="white" />
    <path
        d="M418.815 363.898C418.138 362.369 421.195 364.094 422.327 360.916C425.022 353.335 425.056 350.957 421.55 348.332C417.377 345.64 412.882 343.48 408.171 341.908C406.993 341.547 409.539 340.378 412.433 336.854C413.167 335.964 412.938 336.306 419.931 339.797C428.464 344.059 428.996 343.587 430.027 346.329C431.367 349.495 433.836 352.05 436.957 353.494C443.286 356.721 449.442 359.793 454.493 354.427C455.123 353.757 455.08 353.833 458.611 355.696C474.773 364.223 474.33 362.558 474.712 364.345C475.156 366.239 476.04 368.001 477.291 369.488C478.542 370.978 480.124 372.149 481.914 372.911C487.099 375.692 489.715 377.647 494.959 375.854C510.256 370.623 519.339 349.012 512.363 342.134C506.388 336.248 503.146 332.185 494.888 333.999C493.61 334.281 494.634 334.29 478.515 323.007C476.841 321.835 476.817 321.542 477.077 320.587C477.34 319.599 477.364 318.562 477.147 317.562C476.93 316.562 476.477 315.628 475.826 314.839C466.828 302.953 458.693 303.382 455.787 303.562C455.508 303.594 455.224 303.562 454.958 303.467C454.692 303.372 454.453 303.217 454.257 303.015C441.102 287.862 348.336 223.441 325.801 208.254C323.562 206.743 324.963 206.232 324.369 204.146C322.228 196.598 310.774 186.359 303.872 183.7C276.57 173.185 243.309 208.331 246.179 237.26C247.757 253.169 255.846 259.177 270.418 264.953C272.998 265.955 275.788 266.296 278.534 265.944C281.403 265.146 284.158 263.982 286.73 262.481C289.432 260.692 288.003 265.25 373.31 314.576C374.674 315.365 374.111 315.298 374.062 316.846C373.805 322.885 375.139 328.881 377.932 334.241C378.578 335.465 377.627 334.853 373.619 334.734C363.043 334.397 362.116 337.389 362.079 347.803C362.079 349.978 363.333 350.957 365.508 352.175C368.696 353.965 368.819 354.05 368.635 354.678C368.292 355.846 281.664 599.664 281.529 603.479C281.428 606.379 284.5 608.588 287.342 609.099C288 609.219 290.634 602.708 295.358 590.832C306.509 562.799 335.083 494.349 340.183 481.353C383.155 371.828 376.947 386.684 383.088 371.587C383.972 369.414 383.947 371.247 384.458 379.813C384.7 383.848 398.666 582.722 399.473 592.202C400.201 600.698 400.553 600.68 401.716 600.769C403.013 601.096 404.371 601.102 405.672 600.79C406.975 600.478 408.18 599.854 409.19 598.976C410.781 597.048 410.261 596.366 409.551 576.337C409.147 564.965 402.432 377.665 402.487 377.659C402.487 369.705 473.39 546.297 497.21 599.315C498.177 601.457 499.48 600.441 502.827 598.798C504.042 597.954 504.917 596.706 505.293 595.274C505.67 593.842 505.526 592.325 504.886 590.991C495.063 564.576 418.815 363.898 418.815 363.898ZM511.072 344.013C514.061 347.228 513.147 355.764 507.401 363.785C503.363 369.421 495.922 376.127 489.593 373.627C485.921 372.18 484.441 368.12 486.858 360.472C490.33 349.455 504.969 337.435 511.069 344.01L511.072 344.013ZM499.603 336.058C501.717 336.355 503.672 337.359 505.143 338.907C505.409 339.145 506.278 340.032 504.657 340.039C495.509 341.106 483.869 354.824 483.241 365.645C483 369.714 483.853 370.311 482.614 369.873C474.014 366.86 476.428 354.476 483.309 345.521C485.646 342.538 488.464 339.965 491.649 337.909C494.032 336.456 496.819 335.807 499.6 336.058H499.603ZM491.037 334.568C492.765 335.691 489.412 334.633 482.939 341.911C470.609 355.761 477.049 362.295 472.537 360.319C470.674 359.502 467.116 357.477 459.327 353.432C446.783 346.919 446.909 346.986 447.089 345.582C448.132 339.95 450.448 334.63 453.859 330.028C456.781 325.791 460.48 322.144 464.757 319.284C465.938 318.461 466.648 317.874 468.168 318.929C470.447 320.523 475.96 324.782 491.015 334.568H491.037ZM465.179 307.98C469.924 311.131 474.112 315.628 472.286 314.778C467.467 312.532 461.707 317.589 457.372 321.63C451.204 327.37 446.771 334.724 444.574 342.856C444.036 344.502 443.831 346.24 443.969 347.965C444.106 349.691 444.584 351.373 445.376 352.912C445.712 353.435 446.483 354.748 444.764 354.225C441.148 353.154 437.773 351.398 434.821 349.051C431.844 346.576 431.199 341.29 431.245 337.554C431.462 318.954 453.272 300.081 465.164 307.98H465.179ZM275.447 262.276C275.102 262.781 274.493 262.689 273.918 262.472C263.849 258.672 251.627 253.97 249.749 239.276C246.995 217.665 262.491 193.961 284.319 186.961C290.2 184.691 296.688 184.528 302.676 186.499C308.758 189.534 314.118 193.838 318.391 199.122C315.831 198.144 313.062 197.828 310.345 198.204C286.764 201.056 260.401 247.484 274.364 261.016C274.854 261.49 275.579 262.081 275.447 262.276ZM275.099 250.186C274.757 250.041 274.48 249.777 274.318 249.444C274.157 249.11 274.122 248.729 274.221 248.372C279.137 219.571 303.19 201.545 309.452 201.772C310.587 201.695 310.498 201.6 320.056 208.291C358.784 235.394 414.201 272.461 452.106 303.954C453.554 305.156 443.589 305.294 434.124 319.311C425.423 332.197 429.779 342.027 427.812 340.99C352.974 301.604 282.53 254.01 275.099 250.186ZM366.726 337.989C368.562 336.006 377.85 337.683 378.964 337.805C379.468 337.83 379.961 337.97 380.401 338.212C380.845 338.457 381.224 338.8 381.515 339.213C384.14 342.379 387.753 344.573 391.773 345.438C395.793 346.304 399.987 345.793 403.683 343.988C404.298 343.563 405.051 343.379 405.791 343.477C410.141 344.814 414.323 346.641 418.261 348.923C430.517 356.614 397.668 353.968 375.103 344.664C372.747 343.682 364.985 339.849 366.726 337.98V337.989ZM412.821 360.854C386.67 360.937 364.441 350.786 364.585 347.932C364.79 343.875 364.701 341.088 365.931 342.232C374.965 350.627 409.848 357.663 420.522 355.36C421.085 355.237 421.195 355.415 421.134 355.822C420.898 357.159 420.568 358.477 420.148 359.768C419.374 361.218 417.799 360.83 412.821 360.845V360.854Z"
        fill="white" />
    <path
        d="M490.855 367.946C492.764 372.535 500.823 367.928 505.213 360.662C507.211 357.358 509.175 353.778 508.535 350.48C507.77 346.503 503.206 346.95 500.223 349.192C494.719 353.325 488.98 362.096 490.855 367.946Z"
        fill="white" />
    <path
        d="M121.586 356.776C124.854 356.776 124.71 356.959 124.646 355.858C124.646 355.858 124.135 350.743 123.673 344.468C123.529 342.516 127.723 340.616 128.133 352.156C128.317 357.357 128.598 357.051 129.504 357.073C141.074 357.317 141.224 356.742 141.637 357.733C142.014 358.651 137.005 360.055 136.042 360.236C129.033 361.539 129.005 360.236 129.005 362.182C129.091 375.163 129.054 372.553 129.381 375.221C129.446 375.732 128.886 375.719 128.687 375.566C126.64 373.997 125.628 366.584 125.548 364.804C125.346 360.753 125.043 360.998 124.242 360.937C118.499 360.496 117.104 360.615 117.013 359.306C116.82 356.614 118.873 356.776 121.586 356.776Z"
        fill="white" />
    <path
        d="M349.089 84.0236C349.089 90.4482 348.81 90.3258 349.918 90.3289C354.32 90.3289 355.425 90.4727 357.068 90.5675C358.711 90.6624 358.561 91.8249 357.768 92.3114C355.578 93.633 353.063 94.3214 350.505 94.2999C348.578 94.4866 349.48 93.8349 348.508 102.796C347.954 107.92 347.48 109.961 346.488 109.248C344.668 107.939 344.995 99.2439 344.705 95.1994C344.638 94.2265 344.846 94.1347 339.957 94.1439C339.008 94.1439 337.726 94.2571 337.448 93.1007C337.023 91.3324 337.323 90.4666 340.813 90.3473C344.843 90.2004 344.986 90.4849 345.026 89.5885C345.106 85.7197 345.396 81.8579 345.898 78.0211C345.898 77.6008 346.066 77.1976 346.363 76.9005C346.66 76.6034 347.064 76.4364 347.483 76.4364C347.902 76.4364 348.306 76.6034 348.602 76.9005C348.899 77.1976 349.067 77.6008 349.067 78.0211C349.178 80.0201 349.184 82.0237 349.089 84.0236Z"
        fill="white" />
    <path
        d="M509.751 190.067C510.559 190.318 508.95 191.786 507.61 192.374C506.11 192.84 504.562 193.137 502.996 193.258C502.638 193.313 501.956 193.258 501.843 193.812C501.424 195.898 501.246 198.896 500.426 203.908C499.814 207.652 499.169 207.918 498.591 208.007C498.141 208.074 497.367 207.49 497.422 204.079C497.495 200.206 497.706 194.962 497.814 194.344C497.951 193.567 496.443 193.751 492.502 194.173C492.108 194.218 491.713 194.121 491.383 193.9C491.055 193.679 490.814 193.348 490.707 192.967C490.6 192.586 490.633 192.178 490.798 191.819C490.964 191.459 491.251 191.17 491.612 191.003C493.384 190.118 495.305 189.57 497.278 189.385C497.63 189.302 498.037 189.544 498.236 188.981C498.942 186.998 498.756 182.027 499.404 179.497C500.096 176.796 502.057 177.591 502.109 179.656C502.448 194.139 500.341 187.142 509.751 190.067Z"
        fill="white" />
</svg>
    