<svg width="592" height="516" viewBox="0 0 592 516" fill="none" xmlns="http://www.w3.org/2000/svg">
    <g clip-path="url(#clip0_7412_2269)">
        <path
            d="M182.167 340.121C182.083 340.072 186.321 330.236 191.727 328.014L195.176 333.725C195.176 333.725 188.026 339.014 185.607 341.935L182.167 340.121Z"
            fill="#E3F0FF" />
        <path
            d="M216.919 303.566C214.436 303.92 209.321 301.773 207.258 301.313C204.378 300.674 199.553 308.366 195.656 312.422C191.758 316.478 183.072 316.494 173.887 323.471C167.369 328.408 165.829 340.727 165.64 347.98C164.98 347.427 164.368 346.819 163.812 346.162C158.249 339.665 162.594 329.625 167.705 322.194C172.816 314.763 177.696 313.318 183.212 311.693C187.558 310.519 191.55 308.302 194.844 305.234C197.521 302.782 200.585 297.302 205.366 297.329C207.65 297.371 209.89 297.959 211.9 299.044C213.911 300.129 215.631 301.679 216.919 303.566Z"
            fill="#E3F0FF" />
        <path
            d="M414.418 443.745C410.353 452.411 393.298 459.07 389.027 459.775C384.757 460.48 380.27 462.37 371.801 470.095C370.127 471.646 368.18 472.874 366.06 473.718C364.548 472.901 362.449 473.211 360.388 474.214C356.684 473.041 351.488 470.878 351.648 467.995C351.886 463.539 358.851 459.786 361.42 459.23C363.989 458.673 376.485 453.865 381.761 446.625C386.535 440.046 407.96 425.324 414.358 425.153C417.382 430.318 417.02 438.202 414.418 443.745Z"
            fill="#E3F0FF" />
        <path
            d="M398.438 373.45C394.672 388.285 388.961 407.28 386.139 416.442C374.621 417.142 370.229 419.595 370.039 422.526C369.315 433.712 365.907 437.748 359.218 438.241C357.89 438.358 353.765 441.245 352.704 441.532C353.417 436.611 356.009 427.046 358.332 423.55C362.854 416.696 368.146 378.935 368.146 378.935C368.146 378.935 387.882 371.299 398.438 373.45Z"
            fill="#2E60BD" />
        <path
            d="M350.956 77.798C349.807 80.3086 348.351 82.6668 346.621 84.8186C346.134 84.4746 345.729 84.0285 345.433 83.5114C345.137 82.9943 344.957 82.4188 344.907 81.825C344.811 80.7299 345.155 79.6416 345.861 78.7995C346.568 77.9574 347.58 77.4304 348.675 77.3346C349.464 77.2608 350.258 77.422 350.956 77.798Z"
            fill="#E3F0FF" />
        <path
            d="M390.857 274.643C385.619 274.747 379.984 257.237 377.934 254.718C375.592 251.848 364.906 263.368 357.548 263.669C350.19 263.97 363.217 252.554 363.217 252.554C363.217 252.554 351.983 259.252 347.933 256.6C343.884 253.948 359.339 246.252 352.314 243.174C345.289 240.097 367.885 232.873 368.387 232.864C369.607 232.837 370.669 232.824 371.33 232.8C372.881 232.852 374.425 233.027 375.948 233.322C378.158 240.686 380.987 247.849 384.406 254.735C386.256 258.243 388.522 265.589 390.857 274.643Z"
            fill="#E3F0FF" />
        <path
            d="M348.959 278.377C348.959 278.377 357.666 279.524 355.9 284.16C354.134 288.795 344.65 287.659 344.073 287.606C344.783 288.138 359.164 298.86 354.042 302.508C348.92 306.157 339.847 295.349 339.971 297.03C340.095 298.71 342.537 311.196 338.645 313.354C335.603 302.498 330.638 284.941 330.638 284.941L327.476 285.515C325.887 288.294 324.439 291.153 323.139 294.079C322.562 292.449 322.755 291.266 316.678 292.358C310.601 293.449 303.713 290.371 311.477 284.251C319.24 278.131 355.151 264.358 363.678 267.888C372.206 271.417 348.959 278.377 348.959 278.377Z"
            fill="#E3F0FF" />
        <path
            d="M301.946 301.008C290.098 310.606 285.869 327.722 291.064 325.965C296.26 324.207 300.304 316.469 304.339 312.812C308.375 309.156 311.013 305.473 310.967 300.893C310.941 296.815 308.565 295.651 301.946 301.008Z"
            fill="#E3F0FF" />
        <path
            d="M311.222 263.047C307.168 262.968 295.947 266.67 307.537 270.445C319.126 274.221 334.849 269.062 335.593 266.985C336.338 264.908 338.116 263.152 331.135 262.803C324.155 262.453 311.222 263.047 311.222 263.047Z"
            fill="#E3F0FF" />
        <path
            d="M298.252 256.431C298.252 256.431 302.174 262.718 299.31 268.524C296.446 274.33 283.667 255.398 283.667 255.398C283.667 255.398 282.228 261.685 278.69 263.835C276.988 265.075 275.596 266.691 274.622 268.558C269.086 276.746 264.376 282.096 260.268 285.439C264.892 275.456 268.335 265.553 271.708 262.034C275.477 258.081 285.842 234.141 286.911 230.413C288.555 232.075 290.291 233.645 292.111 235.113C291.477 237.397 290.878 239.702 290.722 240.79C290.348 243.303 306.03 245.909 313.031 250.68C320.033 255.452 298.252 256.431 298.252 256.431Z"
            fill="#E3F0FF" />
        <path
            d="M367.798 49.3604C366.164 54.2014 361.998 55.5831 357.322 56.358C347.585 57.9529 338.402 49.1431 334.691 44.6211C332.605 42.0717 332.223 43.3281 332.25 43.7602C332.801 53.7252 327.359 58.5451 322.076 63.2252C322.302 60.7135 319.302 57.6497 317.593 57.0562C316.792 51.2927 316.882 45.4404 317.858 39.704C319.454 29.7226 326.167 32.2444 327.451 31.7663C328.735 31.2881 329.602 29.0405 329.639 27.7684C329.676 26.4963 328.161 19.8962 329.913 17.834L330.038 17.6973C330.119 17.6027 330.219 17.5273 330.333 17.4767C330.446 17.4261 330.57 17.4016 330.694 17.405C330.818 17.4084 330.94 17.4395 331.051 17.4963C331.161 17.553 331.258 17.6337 331.333 17.7326C332.221 18.9459 332.845 20.3322 333.163 21.8019C333.416 22.7285 333.557 23.4249 333.557 23.4249L333.383 23.6573L333.208 23.8783C332.935 24.2139 332.739 24.6059 332.636 25.0261C332.532 25.4463 332.523 25.8842 332.609 26.3083C332.856 27.4298 333.81 26.9691 335.405 24.692C336.849 22.6453 339.957 20.1444 340.99 20.3284C341.934 21.7089 338.721 24.0476 336.819 26.0886C336.444 26.6358 336.226 27.9351 340.299 28.3675C342.485 28.6946 344.583 29.4557 346.47 30.6058C348.357 31.756 349.995 33.2721 351.287 35.0648C351.897 36.0953 352.629 37.0483 353.467 37.9032C352.595 38.5167 350.656 40.5267 353.006 41.6471C354.723 42.457 357.34 40.8906 358.545 39.6308C358.806 39.6079 359.089 39.5831 359.384 39.5573C362.188 39.4993 364.919 40.4487 367.083 42.233C366.852 43.5729 366.341 44.8487 365.581 45.9765C366.208 46.3059 366.74 46.7895 367.127 47.3815C367.515 47.9735 367.746 48.6545 367.798 49.3604Z"
            fill="#2E60BD" />
        <path
            d="M277.766 157.896C271.412 165.093 265.31 172.302 263.326 175.756L261.4 179.88C256.718 174.963 249.64 167.1 249.462 166.762C249.312 166.54 249.187 166.301 249.091 166.051C248.564 163.811 247.711 155.759 254.192 159.021C258.085 161.012 261.298 164.117 263.419 167.941C263.419 167.941 273.932 157.442 274.385 157.403L274.499 157.393L277.766 157.896Z"
            fill="#E3F0FF" />
        <path
            d="M511.021 109.815C511.063 110.029 511.048 110.25 510.978 110.457C510.908 110.664 510.785 110.848 510.622 110.993C509.691 111.726 503.659 108.63 500.92 108.412C498.18 108.195 493.933 109.687 490.45 108.425C487.698 107.248 485.02 105.906 482.429 104.406C482.429 104.406 476.538 107.368 475.325 108L475.14 108.107C471.442 110.271 463.645 114.828 455.342 119.613C455.527 119.505 458.699 114.21 462.194 111.172C465.689 108.134 479.53 100.282 482.192 100.129C484.853 99.9763 489.544 105.773 493.057 105.431C496.205 105.213 506.006 104.23 511.021 109.815Z"
            fill="#E3F0FF" />
        <path
            d="M402.493 99.8321C409.303 102.277 414.447 104.502 415.254 106.546C416.612 110.039 410.987 113.686 408.421 109.704C405.855 105.722 412.341 102.251 417.794 100.951C423.247 99.651 463.096 91.0437 474.747 85.5893C486.398 80.1348 493.913 76.8025 496.891 74.9074C499.869 73.0123 509.785 65.5035 511.318 65.2551"
            stroke="#2E60BD" stroke-width="0.57561" stroke-linecap="round" stroke-linejoin="round" />
        <path d="M282.755 152.327C289.746 144.571 295.864 138.069 295.864 138.069" stroke="#E9622B"
            stroke-width="0.57561" stroke-linecap="round" stroke-linejoin="round" />
        <path
            d="M256.216 122.976C263.504 115.479 275.988 102.956 282.327 97.6696C289.075 92.0954 299.566 89.0629 304.807 87.8157"
            stroke="#E9622B" stroke-width="0.57561" stroke-linecap="round" stroke-linejoin="round" />
        <path
            d="M399.145 118.528C396.649 127.502 394.019 135.322 395.487 145.447C388.457 143.479 375.358 139.835 374.756 140.002C376.101 154.07 377.593 179.613 376.536 189.616C375.145 202.849 381.807 206.884 381.48 210.068C381.153 213.251 378.032 213.638 378.854 216.116C379.522 218.126 384.398 225.129 384.391 230.011C378.214 228.917 369.435 228.005 362.518 229.158C350.858 231.116 326.321 242.922 314.095 239.59C301.87 236.259 288.039 228.153 289.605 225.147C291.17 222.141 299.018 213.59 297.658 209.274C296.297 204.958 304.577 201.741 302.086 196.655C299.595 191.57 303.532 176.468 298.444 168.089C293.356 159.709 294.354 154.661 294.347 154.444C294.339 154.228 313.862 155.389 307.517 151.463C301.172 147.538 300.007 147.548 301.226 146.973C302.444 146.397 317.012 139.533 310.204 138.54C306.07 137.98 301.873 138.953 298.407 141.275C298.407 141.275 300.192 122.487 283.931 145.662C279.869 151.493 271.058 144.857 270.331 142.954C269.605 141.052 262.768 137.901 263.335 133.805C263.903 129.708 261.709 126.448 261.835 124.368C261.962 122.288 273.24 111.003 285.131 101.115C296.652 91.5567 307.579 92.5896 307.579 92.5896C317.195 104.905 334.615 103.861 338.881 94.8691C338.881 94.8691 346.452 93.4752 349.501 87.9503C352.798 86.4388 388.458 97.1158 398.481 103.623C399.577 107.917 400.438 113.842 399.145 118.528Z"
            fill="#E9622B" />
        <path
            d="M320.68 458.04C321.331 465.453 319.262 472.85 314.86 478.849C310.457 484.849 304.022 489.041 296.755 490.644C289.488 492.247 281.886 491.151 275.368 487.56C268.851 483.97 263.862 478.13 261.334 471.131C266.352 475.841 272.81 478.723 279.667 479.314C286.523 479.905 293.379 478.17 299.129 474.388C304.879 470.606 309.188 464.998 311.361 458.468C313.535 451.938 313.445 444.867 311.108 438.393C316.611 443.539 320.02 450.535 320.68 458.04Z"
            fill="#E3F0FF" />
        <path
            d="M270.744 357.096C266.765 361.525 257.303 367.565 249.925 367.376C247.333 367.437 244.762 366.908 242.405 365.828C242.662 362.651 243.866 359.624 245.861 357.138C247.856 354.652 250.55 352.821 253.596 351.882C256.641 350.942 259.899 350.937 262.948 351.867C265.996 352.798 268.696 354.62 270.698 357.1L270.744 357.096Z"
            fill="#E3F0FF" />
        <path
            d="M402.242 353.296C394.143 352.392 385.949 352.904 378.026 354.809C376.661 351.326 376.296 347.531 376.973 343.851C377.649 340.172 379.34 336.755 381.856 333.985C384.371 331.216 387.61 329.204 391.207 328.177C394.805 327.15 398.617 327.149 402.215 328.174C402.223 328.265 402.23 328.344 402.238 328.435C402.841 331.8 403.356 340.694 402.242 353.296Z"
            fill="#E3F0FF" />
        <path
            d="M247.442 155.828C247.783 159.686 246.589 163.522 244.12 166.505C241.65 169.488 238.104 171.377 234.251 171.762C235.118 169.473 235.868 167.141 236.497 164.776C237.227 161.751 240.983 154.907 244.736 148.544C246.281 150.682 247.216 153.2 247.442 155.828Z"
            fill="#E3F0FF" />
        <path
            d="M437.188 130.164C434.334 131.774 431.847 133.146 429.992 134.154C420.259 139.441 413.901 140.855 406.52 139.454C406.494 135.849 407.636 132.332 409.773 129.429C411.911 126.526 414.931 124.393 418.382 123.347C421.832 122.302 425.528 122.401 428.918 123.63C432.307 124.859 435.208 127.151 437.188 130.164Z"
            fill="#E3F0FF" />
        <path d="M497.933 78.451C502.033 76.0576 516.916 70.0574 517.62 69.9959" stroke="#2E60BD"
            stroke-width="0.57561" stroke-linecap="round" stroke-linejoin="round" />
        <path d="M501.569 81.8703C507.791 80.08 525.301 78.7539 525.301 78.7539" stroke="#2E60BD"
            stroke-width="0.57561" stroke-linecap="round" stroke-linejoin="round" />
        <path d="M502.044 87.305C510.011 86.3458 517.9 84.8191 525.649 82.7365" stroke="#2E60BD"
            stroke-width="0.57561" stroke-linecap="round" stroke-linejoin="round" />
        <path
            d="M481.424 104.026C481.744 104.158 482.078 104.312 482.448 104.497C485.039 105.996 487.718 107.338 490.47 108.516C493.952 109.777 498.204 108.331 500.939 108.503C503.675 108.675 509.707 111.771 510.641 111.083C510.804 110.939 510.927 110.754 510.998 110.547C511.068 110.341 511.083 110.119 511.041 109.905C510.614 108.336 509.775 106.91 508.611 105.774C506.221 103.023 500.563 101.46 498.013 100.529C495.462 99.5974 495.319 97.0494 496.23 96.2267C497.141 95.404 523.55 90.876 525.388 89.8007C527.226 88.7255 528.957 87.3509 527.461 86.1901C525.965 85.0293 512.566 86.5788 507.881 86.5886"
            stroke="#2E60BD" stroke-width="0.57561" stroke-linecap="round" stroke-linejoin="round" />
        <path
            d="M402.275 138.361C403.667 138.791 405.083 139.141 406.516 139.408C413.897 140.808 420.228 139.351 429.988 134.108C431.843 133.1 434.352 131.726 437.183 130.118C442.476 127.117 449.063 123.363 455.35 119.704C463.652 114.908 471.45 110.362 475.147 108.198L475.332 108.091L477.388 106.894"
            stroke="#2E60BD" stroke-width="0.57561" stroke-linecap="round" stroke-linejoin="round" />
        <path
            d="M357.819 56.2918C356.146 63.2966 354.077 71.2734 350.956 77.799C349.807 80.3096 348.351 82.6678 346.621 84.8196C343.606 88.5125 339.85 90.7844 335.081 90.7559"
            stroke="#2E60BD" stroke-width="0.57561" stroke-linecap="round" stroke-linejoin="round" />
        <path
            d="M336.515 90.6871C336.515 90.6871 334.278 95.6838 332.174 95.422C330.071 95.1602 325.2 94.1004 322.613 81.25C322.98 81.1378 326.303 91.1576 336.515 90.6871Z"
            fill="#2E60BD" stroke="#2E60BD" stroke-width="0.57561" stroke-linecap="round"
            stroke-linejoin="round" />
        <path
            d="M343.673 68.3764C342.712 71.9973 342.391 75.7585 342.725 79.49C342.725 79.49 338.353 80.7298 336.414 78.4304"
            stroke="#2E60BD" stroke-width="0.57561" stroke-linecap="round" stroke-linejoin="round" />
        <path
            d="M332.777 81.8004C333.252 82.5213 333.867 83.1402 334.584 83.6211C335.301 84.102 336.107 84.4352 336.954 84.6013"
            stroke="#2E60BD" stroke-width="0.57561" stroke-linecap="round" stroke-linejoin="round" />
        <path d="M330.654 57.5365C335.973 56.9225 337.659 59.2098 338.384 61.2267" stroke="#2E60BD"
            stroke-width="0.57561" stroke-linecap="round" stroke-linejoin="round" />
        <path d="M347.793 62.8046C350.284 60.049 352.662 60.4468 353.826 60.8136" stroke="#2E60BD"
            stroke-width="0.57561" stroke-linecap="round" stroke-linejoin="round" />
        <path
            d="M335.873 69.9172C336.244 68.7813 336.016 67.688 335.365 67.4754C334.713 67.2628 333.884 68.0113 333.513 69.1472C333.143 70.2832 333.371 71.3765 334.022 71.5891C334.674 71.8017 335.503 71.0532 335.873 69.9172Z"
            fill="#2E60BD" />
        <path
            d="M348.861 71.3197C349.232 70.1837 349.004 69.0904 348.352 68.8778C347.701 68.6652 346.872 69.4137 346.501 70.5497C346.131 71.6856 346.358 72.7789 347.01 72.9916C347.662 73.2042 348.491 72.4556 348.861 71.3197Z"
            fill="#2E60BD" />
        <path d="M322.071 63.1683C328.495 58.2054 333.271 51.6492 332.128 42.6389" stroke="#2E60BD"
            stroke-width="0.57561" stroke-linecap="round" stroke-linejoin="round" />
        <path
            d="M334.593 43.4978C338.482 50.4504 350.933 60.4146 362.896 54.7385C371.821 50.5285 365.764 43.617 361.377 45.6011"
            stroke="#2E60BD" stroke-width="0.57561" stroke-linecap="round" stroke-linejoin="round" />
        <path d="M354.624 39.6298C360.75 35.3103 371.303 37.4276 365.338 45.9396" stroke="#2E60BD"
            stroke-width="0.57561" stroke-linecap="round" stroke-linejoin="round" />
        <path d="M321.801 56.4251C323.48 54.8379 325.845 51.8191 324.583 48.1116" stroke="white"
            stroke-width="0.57561" stroke-linecap="round" stroke-linejoin="round" />
        <path d="M342.945 42.0245C345.821 47.9798 349.12 49.2344 352.752 47.8992" stroke="white"
            stroke-width="0.57561" stroke-linecap="round" stroke-linejoin="round" />
        <path d="M336.603 36.9441C339.283 35.5666 342.751 35.8804 343.962 37.0433" stroke="white"
            stroke-width="0.57561" stroke-linecap="round" stroke-linejoin="round" />
        <path d="M334.939 33.6023C336.19 32.224 339.288 31.0499 340.7 31.7723" stroke="white"
            stroke-width="0.57561" stroke-linecap="round" stroke-linejoin="round" />
        <path
            d="M308.015 87.1333C311.158 81.4511 313.596 75.407 315.276 69.1348C312.046 68.4001 308.084 63.8772 309.869 59.5832C311.653 55.2891 317.002 56.9815 319.268 63.4131"
            stroke="#2E60BD" stroke-width="0.57561" stroke-linecap="round" stroke-linejoin="round" />
        <path d="M312.821 62.0927C314.303 62.9948 315.61 64.1586 316.676 65.5275" stroke="#2E60BD"
            stroke-width="0.57561" stroke-linecap="round" stroke-linejoin="round" />
        <path
            d="M315.383 57.9354C315.383 57.9354 309.045 28.21 326.24 28.7745C326.24 28.7745 326.929 27.8913 326.655 24.7604C326.286 20.5404 329.307 16.7898 331.343 17.7204C333.379 18.651 333.134 23.8163 333.134 23.8163"
            stroke="#2E60BD" stroke-width="0.57561" stroke-linecap="round" stroke-linejoin="round" />
        <path
            d="M331.889 26.7028C332.119 23.8478 337.388 18.3573 340.254 19.7526C343.597 21.3805 335.856 25.5327 335.479 28.0233"
            stroke="#2E60BD" stroke-width="0.57561" stroke-linecap="round" stroke-linejoin="round" />
        <path
            d="M336.694 26.0893C337.154 25.6033 346.079 26.0913 349.547 29.2856C354.074 33.4619 356.177 37.6444 359.485 37.5608"
            stroke="#2E60BD" stroke-width="0.57561" stroke-linecap="round" stroke-linejoin="round" />
        <path d="M310.345 88.8053C314.413 92.9646 322.657 97.8329 332.185 95.4219" stroke="#2E60BD"
            stroke-width="0.57561" stroke-linecap="round" stroke-linejoin="round" />
        <path d="M306.525 90.8656C312.384 101.395 332.288 107.827 339.886 93.2851" stroke="#E9622B"
            stroke-width="0.57561" stroke-linecap="round" stroke-linejoin="round" />
        <path d="M323.024 105.802C330.751 107.24 336.852 104.329 338.835 102.304" stroke="white"
            stroke-width="0.57561" stroke-linecap="round" stroke-linejoin="round" />
        <path d="M291.323 105.764C300.212 113.685 303.273 122.025 302.132 128.709" stroke="white"
            stroke-width="0.57561" stroke-linecap="round" stroke-linejoin="round" />
        <path d="M373.698 119.932C377.612 112.411 380 107.95 380 107.95" stroke="white"
            stroke-width="0.57561" stroke-linecap="round" stroke-linejoin="round" />
        <path d="M375.849 122.316C377.437 121.108 379.163 120.093 380.992 119.294" stroke="white"
            stroke-width="0.57561" stroke-linecap="round" stroke-linejoin="round" />
        <path d="M321.059 186.56C324.312 187.419 326.944 187.063 341.998 171.903" stroke="white"
            stroke-width="0.57561" stroke-linecap="round" stroke-linejoin="round" />
        <path d="M294.119 145.035C297.752 144.371 301.335 143.454 304.841 142.291" stroke="#E9622B"
            stroke-width="0.57561" stroke-linecap="round" stroke-linejoin="round" />
        <path d="M291.732 148.466C294.599 149.359 298.362 150.172 298.362 150.172" stroke="#E9622B"
            stroke-width="0.57561" stroke-linecap="round" stroke-linejoin="round" />
        <path
            d="M311.722 200.042C321.122 202.958 328.01 203.304 334.475 200.886C341.815 198.164 365.803 183.08 365.803 183.08"
            stroke="white" stroke-width="0.57561" stroke-linecap="round" stroke-linejoin="round" />
        <path d="M305.708 206.821C308.402 208.584 311.282 210.046 314.296 211.179" stroke="white"
            stroke-width="0.57561" stroke-linecap="round" stroke-linejoin="round" />
        <path d="M358.822 212.393C362.958 213.905 367.354 214.581 371.753 214.382" stroke="white"
            stroke-width="0.57561" stroke-linecap="round" stroke-linejoin="round" />
        <path d="M349.035 219.937C356.746 221.057 367.236 219.716 367.236 219.716" stroke="white"
            stroke-width="0.57561" stroke-linecap="round" stroke-linejoin="round" />
        <path
            d="M277.745 157.921C271.39 165.118 265.288 172.327 263.304 175.781C263.127 176.062 262.97 176.355 262.832 176.657"
            stroke="#2E60BD" stroke-width="0.57561" stroke-linecap="round" stroke-linejoin="round" />
        <path d="M250.501 162.179C254.394 165.321 257.457 169.371 259.42 173.973" stroke="#2E60BD"
            stroke-width="0.57561" stroke-linecap="round" stroke-linejoin="round" />
        <path
            d="M202.893 240.838C202.893 240.838 204.409 250.593 207.582 257.322C208.454 259.189 213.317 262.65 214.896 263.712C216.475 264.774 216.973 262.753 217.124 259.905C217.274 257.057 214.93 255.605 212.232 248.674C209.153 240.793 215.649 233.641 218.408 232.782C221.168 231.923 221.24 240.456 219.887 243.546C218.535 246.637 219.116 251.718 220.681 252.621C222.246 253.525 223.897 250.18 225.29 246.503C226.683 242.826 234.954 225.654 234.954 225.654C234.954 225.654 236.638 223.346 241.731 215.059C246.382 207.462 256.373 191.922 259.45 183.846C259.714 183.185 259.937 182.509 260.119 181.821"
            stroke="#2E60BD" stroke-width="0.57561" stroke-linecap="round" stroke-linejoin="round" />
        <path
            d="M199.306 247.142C201.483 254.645 203.942 259.893 204.605 260.544C205.268 261.195 210.642 267.354 210.642 267.354"
            stroke="#2E60BD" stroke-width="0.57561" stroke-linecap="round" stroke-linejoin="round" />
        <path
            d="M197.293 253.399C198.856 258.978 200.12 262.193 200.708 262.771C201.295 263.348 205.903 267.414 205.903 267.414"
            stroke="#2E60BD" stroke-width="0.57561" stroke-linecap="round" stroke-linejoin="round" />
        <path
            d="M200.391 267.896C196.706 264.972 195.138 262.995 194.78 260.203C194.421 257.411 193.441 244.9 193.959 244.157C194.477 243.415 196.754 241.089 196.652 239.921C196.549 238.753 196.13 233.966 197.331 232.923C198.531 231.881 214.206 221.331 215.788 220.598C217.37 219.865 223.423 219.153 223.423 219.153"
            stroke="#2E60BD" stroke-width="0.57561" stroke-linecap="round" stroke-linejoin="round" />
        <path
            d="M252.99 135.876C251.498 138.293 248.447 143.269 245.383 148.487C241.397 155.191 237.454 162.383 236.726 165.556C236.063 168.041 235.274 170.491 234.361 172.896C231.697 180.204 227.674 190.01 225.343 196.546C222.041 205.717 216.178 220.484 215.791 220.632"
            stroke="#2E60BD" stroke-width="0.57561" stroke-linecap="round" stroke-linejoin="round" />
        <path
            d="M286.908 230.39C285.84 234.118 275.475 258.058 271.706 262.011C267.936 265.965 264.057 277.929 258.535 289.031C253.014 300.134 244.22 316.689 244.22 316.689C251.16 326.632 263.001 335.37 281.187 333.15C282.816 332.95 284.336 332.691 285.752 332.407C296.428 330.182 301.587 325.787 308.554 328.206"
            stroke="#2E60BD" stroke-width="0.57561" stroke-linecap="round" stroke-linejoin="round" />
        <path
            d="M399.421 313.091C395.702 311.247 391.716 309.999 387.61 309.392C378.742 308.247 373.332 311.864 368.797 314.65C363.99 317.518 358.868 319.822 353.532 321.518C352.125 321.982 350.676 322.308 349.205 322.491C346.654 322.638 344.094 322.42 341.604 321.841L340.938 321.671C340.902 321.263 339.921 317.885 338.64 313.31C335.599 302.454 330.633 284.897 330.633 284.897L327.471 285.471C325.882 288.25 324.435 291.109 323.134 294.034C318.317 304.298 311.465 320.054 310.003 323.6"
            stroke="#2E60BD" stroke-width="0.57561" stroke-linecap="round" stroke-linejoin="round" />
        <path
            d="M375.982 233.32C378.192 240.683 381.021 247.847 384.44 254.732C386.256 258.243 388.522 265.589 390.857 274.643C395.117 291.062 399.619 313.13 402.216 328.174C402.224 328.265 402.231 328.344 402.239 328.435C402.82 331.814 403.311 340.698 402.219 353.299C402.126 354.45 402.009 355.603 401.882 356.757C401.754 357.912 401.5 359.58 401.144 361.394C400.789 363.209 400.386 365.141 399.882 367.22C399.725 367.908 399.559 368.62 399.382 369.344C399.074 370.651 398.735 372.007 398.388 373.398C393.239 393.715 384.415 421.818 384.415 421.818"
            stroke="#2E60BD" stroke-width="0.57561" stroke-linecap="round" stroke-linejoin="round" />
        <path
            d="M353.533 321.517C353.533 321.517 360.117 334.063 362.204 338.979C363.11 341.266 363.671 343.674 363.87 346.126C364.311 351.972 364.294 357.844 363.818 363.688C363.759 364.722 363.68 365.769 363.6 366.816C363.367 369.774 363.036 372.787 362.639 375.828C358.934 404.157 349.076 435.071 347.332 447.798"
            stroke="#2E60BD" stroke-width="0.57561" stroke-linecap="round" stroke-linejoin="round" />
        <path
            d="M388.789 334.241C392.734 333.736 395.824 334.426 393.9 336.08C392.769 337.03 391.527 337.837 390.201 338.484C390.201 338.484 396.997 338.69 398.951 340.908"
            stroke="#2E60BD" stroke-width="0.57561" stroke-linecap="round" stroke-linejoin="round" />
        <path d="M384.903 342.09C386.701 343.386 388.682 344.407 390.781 345.119" stroke="#2E60BD"
            stroke-width="0.57561" stroke-linecap="round" stroke-linejoin="round" />
        <path
            d="M402.253 353.296C394.155 352.392 385.961 352.904 378.038 354.809C373.215 355.88 368.525 357.478 364.052 359.576"
            stroke="#2E60BD" stroke-width="0.57561" stroke-linecap="round" stroke-linejoin="round" />
        <path
            d="M401.189 361.39C400.741 363.715 400.145 366.442 399.432 369.397C386.895 369.502 374.462 371.691 362.643 375.873C363.04 372.832 363.371 369.82 363.603 366.862C375.36 361.514 388.395 359.616 401.189 361.39Z"
            fill="#E9622B" stroke="#E9622B" stroke-width="0.57561" stroke-linecap="round"
            stroke-linejoin="round" />
        <path
            d="M371.722 236.755C362.369 238.431 356.483 241.827 360.059 241.937C363.635 242.047 372.401 240.857 372.175 241.94C371.95 243.022 358.971 247.793 355.911 251.364"
            stroke="#2E60BD" stroke-width="0.57561" stroke-linecap="round" stroke-linejoin="round" />
        <path d="M362.788 257.724C365.786 254.364 371.725 248.941 373.827 248.54" stroke="#2E60BD"
            stroke-width="0.57561" stroke-linecap="round" stroke-linejoin="round" />
        <path d="M316.163 286.47C321.705 282.67 345.92 273.83 354.889 272.611" stroke="#2E60BD"
            stroke-width="0.57561" stroke-linecap="round" stroke-linejoin="round" />
        <path d="M323.721 286.243C329.58 284.873 347.865 282.736 347.865 282.736" stroke="#2E60BD"
            stroke-width="0.57561" stroke-linecap="round" stroke-linejoin="round" />
        <path d="M337.567 288.896C343.276 291.825 348.62 297.645 348.62 297.645" stroke="#2E60BD"
            stroke-width="0.57561" stroke-linecap="round" stroke-linejoin="round" />
        <path d="M308.583 266.993C315.886 267.497 329.245 265.757 329.245 265.757" stroke="#2E60BD"
            stroke-width="0.57561" stroke-linecap="round" stroke-linejoin="round" />
        <path d="M290.313 245.261C295.33 250.343 300.593 250.134 300.593 250.134" stroke="#2E60BD"
            stroke-width="0.57561" stroke-linecap="round" stroke-linejoin="round" />
        <path d="M285.908 247.178C287.372 250.845 290.557 257.585 294.088 260.454" stroke="#2E60BD"
            stroke-width="0.57561" stroke-linecap="round" stroke-linejoin="round" />
        <path d="M293.962 319.629C297.409 314.87 305.403 305.243 305.403 305.243" stroke="#2E60BD"
            stroke-width="0.57561" stroke-linecap="round" stroke-linejoin="round" />
        <path
            d="M194.641 322.113C204.017 331.683 211.524 339.234 217.633 345.169C219.534 347.037 221.306 348.734 222.962 350.292C227.174 354.38 231.595 358.248 236.207 361.879C238.14 363.415 240.234 364.738 242.45 365.825C244.807 366.905 247.378 367.434 249.97 367.373C257.303 367.566 266.765 361.526 270.789 357.093C270.998 356.869 271.184 356.647 271.359 356.426C271.712 356.002 272.024 355.546 272.292 355.064C275.75 348.6 279.828 343.74 289.023 331.642"
            stroke="#2E60BD" stroke-width="0.57561" stroke-linecap="round" stroke-linejoin="round" />
        <path d="M239.801 335.936C240.795 330.705 247.087 320.439 247.087 320.439" stroke="#2E60BD"
            stroke-width="0.57561" stroke-linecap="round" stroke-linejoin="round" />
        <path
            d="M244.802 324.376C244.471 324.257 243.246 323.838 241.482 323.147C238.492 321.973 235.57 320.634 232.73 319.134C226.918 316.076 220.797 311.834 218.714 306.838C218.235 305.686 217.633 304.589 216.919 303.566C215.626 301.681 213.901 300.133 211.887 299.053C209.874 297.972 207.63 297.389 205.345 297.354C200.564 297.327 197.5 302.807 194.823 305.259C191.529 308.326 187.536 310.543 183.191 311.718C177.619 313.348 172.801 314.73 167.684 322.219C162.567 329.708 158.228 339.689 163.791 346.187C164.347 346.844 164.959 347.452 165.619 348.004C167.848 350.012 170.724 351.153 173.723 351.22C176.723 351.287 179.646 350.276 181.963 348.369C186.497 344.406 192.567 340.229 198.436 335.063"
            stroke="#2E60BD" stroke-width="0.57561" stroke-linecap="round" stroke-linejoin="round" />
        <path
            d="M243.349 327.099C243.349 327.099 237.141 326.567 232.85 334.876C228.558 343.184 229.793 352.198 231.127 357.774"
            stroke="#2E60BD" stroke-width="0.57561" stroke-linecap="round" stroke-linejoin="round" />
        <path
            d="M241.483 323.147C241.483 323.147 234.454 323.419 227.565 331.829C222.712 337.763 222.608 345.98 222.962 350.292C221.306 348.734 219.534 347.037 217.633 345.169C217.864 339.616 219.381 334.193 222.065 329.327C224.634 325.028 228.319 321.506 232.73 319.135C235.57 320.635 238.493 321.974 241.483 323.147Z"
            fill="#E9622B" stroke="#E9622B" stroke-width="0.57561" stroke-linecap="round"
            stroke-linejoin="round" />
        <path d="M200.261 327.828C200.01 322.352 207.021 306.318 215.674 309.059" stroke="#2E60BD"
            stroke-width="0.57561" stroke-linecap="round" stroke-linejoin="round" />
        <path
            d="M197.329 332.199C193.085 335.013 189.155 338.273 185.606 341.924C183.735 341.054 181.94 340.029 180.239 338.861C180.239 338.861 183.997 327.844 191.476 325.796"
            stroke="#2E60BD" stroke-width="0.57561" stroke-linecap="round" stroke-linejoin="round" />
        <path d="M193.664 328.188C194.502 329.218 195.283 330.295 196.003 331.412" stroke="#2E60BD"
            stroke-width="0.57561" stroke-linecap="round" stroke-linejoin="round" />
        <path d="M188.344 330.367C189.646 331.513 190.795 332.822 191.759 334.264" stroke="#2E60BD"
            stroke-width="0.57561" stroke-linecap="round" stroke-linejoin="round" />
        <path d="M185.073 334.654C186.238 335.529 187.284 336.551 188.185 337.697" stroke="#2E60BD"
            stroke-width="0.57561" stroke-linecap="round" stroke-linejoin="round" />
        <path d="M126.208 307.387C129.827 321.439 144.308 352.773 164.973 367.916" stroke="#2E60BD"
            stroke-width="0.57561" stroke-linecap="round" stroke-linejoin="round" />
        <path d="M124.682 338.029C129.633 350.718 137.236 361.45 139.334 363.484" stroke="#2E60BD"
            stroke-width="0.57561" stroke-linecap="round" stroke-linejoin="round" />
        <path
            d="M406.672 369.449C414.932 367.698 431.379 367.288 431.379 367.288C438.748 361.099 448.941 360.287 447.225 364.575"
            stroke="#2E60BD" stroke-width="0.57561" stroke-linecap="round" stroke-linejoin="round" />
        <path d="M443.105 367.13C447.319 363.034 457.813 359.91 454.839 366.412" stroke="#2E60BD"
            stroke-width="0.57561" stroke-linecap="round" stroke-linejoin="round" />
        <path d="M455.44 365.182C455.44 365.182 468.239 360.439 466.602 366.812" stroke="#2E60BD"
            stroke-width="0.57561" stroke-linecap="round" stroke-linejoin="round" />
        <path d="M476.548 365.907C497.596 364.775 561.506 363.607 585.54 365.516" stroke="#2E60BD"
            stroke-width="0.57561" stroke-linecap="round" stroke-linejoin="round" />
        <path d="M445.769 426.84L457.112 425.847" stroke="#2E60BD" stroke-width="0.57561"
            stroke-linecap="round" stroke-linejoin="round" />
        <path d="M463.547 423.615C471.26 422.803 490.492 421.818 494.509 421.741" stroke="#2E60BD"
            stroke-width="0.57561" stroke-linecap="round" stroke-linejoin="round" />
        <path d="M466.341 455.549C475.678 454.355 497.23 452.846 497.23 452.846" stroke="#2E60BD"
            stroke-width="0.57561" stroke-linecap="round" stroke-linejoin="round" />
        <path
            d="M30.001 419.549C64.574 412.307 115.108 406.148 141.675 403.824C168.243 401.499 223.093 393.729 223.093 393.729C223.093 393.729 216.052 391.636 217.072 388.54C218.093 385.444 234.565 391.982 234.565 391.982"
            stroke="#2E60BD" stroke-width="0.57561" stroke-linecap="round" stroke-linejoin="round" />
        <path
            d="M233.073 391.392C233.073 391.392 229.222 386.562 234.003 385.035C238.785 383.508 243.451 391.376 244.972 388.248C246.493 385.12 247.432 383.175 252.414 387.597"
            stroke="#2E60BD" stroke-width="0.57561" stroke-linecap="round" stroke-linejoin="round" />
        <path d="M256 388.746C267.649 386.401 309.634 379.481 331.572 378.591" stroke="#2E60BD"
            stroke-width="0.57561" stroke-linecap="round" stroke-linejoin="round" />
        <path
            d="M367.377 474.928C367.073 474.399 366.613 473.976 366.06 473.717C364.548 472.901 362.449 473.21 360.388 474.213C359.962 474.418 359.55 474.653 359.157 474.916C357.901 475.729 356.785 476.741 355.853 477.914"
            stroke="#2E60BD" stroke-width="0.57561" stroke-linecap="round" stroke-linejoin="round" />
        <path
            d="M364.235 477.558C366.623 475.063 375.364 469.669 377.82 472.392C380.276 475.115 377.196 478.322 377.196 478.322"
            stroke="#2E60BD" stroke-width="0.57561" stroke-linecap="round" stroke-linejoin="round" />
        <path
            d="M378.333 476.554C378.333 476.554 388.21 471.86 387.417 477.428C387.417 477.428 398.702 474.589 406.582 473.465"
            stroke="#2E60BD" stroke-width="0.57561" stroke-linecap="round" stroke-linejoin="round" />
        <path d="M420.773 473.664L429.849 472.87" stroke="#2E60BD" stroke-width="0.57561"
            stroke-linecap="round" stroke-linejoin="round" />
        <path
            d="M331.883 486.538C331.4 483.757 333.782 482.108 341.339 484.088C341.339 484.088 336.884 480.465 339.939 479.707C342.299 479.123 348.249 483.243 348.249 483.243"
            stroke="#2E60BD" stroke-width="0.57561" stroke-linecap="round" stroke-linejoin="round" />
        <path d="M254.88 497.711C259.377 496.517 263.941 495.591 268.548 494.938" stroke="#2E60BD"
            stroke-width="0.57561" stroke-linecap="round" stroke-linejoin="round" />
        <path d="M232.342 476.581C230 462.875 233.661 452.461 237.969 448.267" stroke="#2E60BD"
            stroke-width="0.57561" stroke-linecap="round" stroke-linejoin="round" />
        <path d="M210.49 473.486C208.329 466.817 212.418 459.6 214.245 459.441" stroke="#2E60BD"
            stroke-width="0.57561" stroke-linecap="round" stroke-linejoin="round" />
        <path d="M176.566 437.189C189.157 435.951 202.316 434.936 202.316 434.936" stroke="#2E60BD"
            stroke-width="0.57561" stroke-linecap="round" stroke-linejoin="round" />
        <path d="M199.143 429.363C204.24 428.826 209.353 428.47 209.353 428.47" stroke="#2E60BD"
            stroke-width="0.57561" stroke-linecap="round" stroke-linejoin="round" />
        <path d="M212.627 433.235C215.081 432.928 219.808 432.606 219.808 432.606" stroke="#2E60BD"
            stroke-width="0.57561" stroke-linecap="round" stroke-linejoin="round" />
        <path
            d="M205.927 498.679C207.892 496.449 213.188 496.226 219.406 499.237C219.406 499.237 211.207 493.45 218.842 492.782C226.476 492.114 232.222 498.47 231.885 498.145"
            stroke="#2E60BD" stroke-width="0.57561" stroke-linecap="round" stroke-linejoin="round" />
        <path
            d="M156.371 507.781C161.875 505.795 167.542 504.294 173.307 503.293C173.307 503.293 165.632 501.015 166.4 497.382C167.168 493.748 177.108 499.702 177.108 499.702C177.108 499.702 173.77 496.177 176.735 495.437C179.699 494.698 183.576 497.982 183.418 497.619C181.986 494.315 186.113 491.313 193.796 497.465"
            stroke="#2E60BD" stroke-width="0.57561" stroke-linecap="round" stroke-linejoin="round" />
        <path
            d="M86.9089 478.925C93.5299 478.563 97.414 477.229 97.5603 475.113C97.7067 472.997 111.95 473.522 113.802 473.132C115.653 472.741 116.45 470.477 120.803 472.028C125.157 473.578 146.542 470.816 146.542 470.816"
            stroke="#2E60BD" stroke-width="0.57561" stroke-linecap="round" stroke-linejoin="round" />
        <path d="M151.099 466.988C159.181 466.727 167.626 465.657 167.626 465.657" stroke="#2E60BD"
            stroke-width="0.57561" stroke-linecap="round" stroke-linejoin="round" />
        <path d="M51.9914 483.421C56.3649 482.456 71.9273 483.038 71.9273 483.038" stroke="#2E60BD"
            stroke-width="0.57561" stroke-linecap="round" stroke-linejoin="round" />
        <path
            d="M366.06 473.718C368.181 472.875 370.128 471.647 371.802 470.096C380.27 462.37 384.769 460.479 389.028 459.775C393.287 459.071 410.353 452.411 414.419 443.746C417.02 438.203 417.382 430.318 414.394 425.173C413.545 423.645 412.312 422.364 410.818 421.457C409.324 420.55 407.619 420.047 405.871 419.997C394.647 419.345 381.375 431.228 381.375 431.228"
            stroke="#2E60BD" stroke-width="0.57561" stroke-linecap="round" stroke-linejoin="round" />
        <path
            d="M359.193 474.935C355.805 474.903 352.498 473.894 349.669 472.031C346.281 469.504 343.99 464.218 345.935 457.052C347.88 449.886 356.212 442.173 362.185 441.982C368.158 441.791 368.158 439.962 370.784 436.657C373.41 433.353 372.166 432.467 378.921 427.887"
            stroke="#2E60BD" stroke-width="0.57561" stroke-linecap="round" stroke-linejoin="round" />
        <path
            d="M370.78 436.601C370.78 436.601 372.735 430.589 372.621 428.381C372.508 426.174 373.35 423.643 374.901 423.084C376.453 422.525 383.987 420.186 384.725 422.224C385.282 423.971 385.713 425.756 386.015 427.564"
            stroke="#2E60BD" stroke-width="0.57561" stroke-linecap="round" stroke-linejoin="round" />
        <path
            d="M347.334 469.516C347.187 469.277 350.134 460.229 356.135 457.486C362.136 454.744 368.493 456.199 378.096 445.106"
            stroke="#2E60BD" stroke-width="0.57561" stroke-linecap="round" stroke-linejoin="round" />
        <path d="M381.389 441.972C385.288 437.927 397.463 428.666 401.783 426.836" stroke="#2E60BD"
            stroke-width="0.57561" stroke-linecap="round" stroke-linejoin="round" />
        <path d="M407.918 428.894C410.086 431.333 413.835 436.949 413.835 436.949" stroke="#2E60BD"
            stroke-width="0.57561" stroke-linecap="round" stroke-linejoin="round" />
        <path d="M402.32 432.985C404.909 435.525 409.855 440.716 409.855 440.716" stroke="#2E60BD"
            stroke-width="0.57561" stroke-linecap="round" stroke-linejoin="round" />
        <path d="M396.75 436.33L404.339 443.896" stroke="#2E60BD" stroke-width="0.57561"
            stroke-linecap="round" stroke-linejoin="round" />
        <path d="M393.065 437.989L400.807 447.302" stroke="#2E60BD" stroke-width="0.57561"
            stroke-linecap="round" stroke-linejoin="round" />
        <path d="M390.364 442.912L397.624 450.507" stroke="#2E60BD" stroke-width="0.57561"
            stroke-linecap="round" stroke-linejoin="round" />
        <path d="M383.826 446.959L392.868 455.324" stroke="#2E60BD" stroke-width="0.57561"
            stroke-linecap="round" stroke-linejoin="round" />
        <path d="M375.925 453.995L381.61 458.607" stroke="#2E60BD" stroke-width="0.57561"
            stroke-linecap="round" stroke-linejoin="round" />
        <path d="M368.875 457.161L375.514 462.764" stroke="#2E60BD" stroke-width="0.57561"
            stroke-linecap="round" stroke-linejoin="round" />
        <path d="M364.866 460.072L370.562 465.335" stroke="#2E60BD" stroke-width="0.57561"
            stroke-linecap="round" stroke-linejoin="round" />
        <path d="M360.056 463.372L367.048 469.207" stroke="#2E60BD" stroke-width="0.57561"
            stroke-linecap="round" stroke-linejoin="round" />
        <path d="M354.937 467.045L362.694 473.396" stroke="#2E60BD" stroke-width="0.57561"
            stroke-linecap="round" stroke-linejoin="round" />
        <path
            d="M325.263 457.638C325.859 464.578 324.384 471.539 321.027 477.642C317.669 483.745 312.578 488.716 306.397 491.927C300.216 495.138 293.221 496.446 286.297 495.685C279.373 494.924 272.83 492.128 267.494 487.651C262.158 483.173 258.269 477.215 256.317 470.528C254.365 463.842 254.438 456.727 256.527 450.082C258.617 443.437 262.628 437.56 268.055 433.194C273.482 428.827 280.082 426.167 287.02 425.548C288.263 425.441 289.51 425.396 290.758 425.416C299.454 425.593 307.778 428.974 314.134 434.911C320.491 440.848 324.432 448.922 325.201 457.586L325.263 457.638Z"
            stroke="#2E60BD" stroke-width="0.57561" stroke-linecap="round" stroke-linejoin="round" />
        <path d="M278.727 433.052L282.841 439.837" stroke="#2E60BD" stroke-width="0.57561"
            stroke-linecap="round" stroke-linejoin="round" />
        <path
            d="M309.828 431.475L299.446 441.116L287.299 439.458L283.213 431.952C283.213 431.952 287.541 428.247 290.853 425.465C297.626 425.589 304.218 427.677 309.828 431.475Z"
            fill="#2E60BD" stroke="#2E60BD" stroke-width="0.57561" stroke-linecap="round"
            stroke-linejoin="round" />
        <path d="M286.177 444.003C285.633 444.188 282.591 452.01 282.591 452.01" stroke="#2E60BD"
            stroke-width="0.57561" stroke-linecap="round" stroke-linejoin="round" />
        <path d="M298.337 445.545L301.572 453.652" stroke="#2E60BD" stroke-width="0.57561"
            stroke-linecap="round" stroke-linejoin="round" />
        <path d="M258.768 444.675L267.881 456.2" stroke="#2E60BD" stroke-width="0.57561"
            stroke-linecap="round" stroke-linejoin="round" />
        <path d="M260.77 474.094C261.884 472.381 263.086 470.727 264.371 469.138" stroke="#2E60BD"
            stroke-width="0.57561" stroke-linecap="round" stroke-linejoin="round" />
        <path d="M315.466 450.586C317.403 448.416 321.608 444.744 321.608 444.744" stroke="#2E60BD"
            stroke-width="0.57561" stroke-linecap="round" stroke-linejoin="round" />
        <path d="M313.419 472.528L320.242 479.052" stroke="#2E60BD" stroke-width="0.57561"
            stroke-linecap="round" stroke-linejoin="round" />
        <path d="M301.138 486.577C301.236 486.259 305.925 475.973 305.925 475.973" stroke="#2E60BD"
            stroke-width="0.57561" stroke-linecap="round" stroke-linejoin="round" />
        <path
            d="M297.718 464.86C297.775 464.604 302.9 455.102 302.9 455.102L313.66 453.578L320.058 465.043L313.749 472.888L306.525 473.943L297.718 464.86Z"
            fill="#2E60BD" stroke="#2E60BD" stroke-width="0.57561" stroke-linecap="round"
            stroke-linejoin="round" />
        <path d="M294.685 466.12L285.122 465.916" stroke="#2E60BD" stroke-width="0.57561"
            stroke-linecap="round" stroke-linejoin="round" />
        <path
            d="M281.049 455.951L287 465.958L277.197 476.463L263.744 469.936L266.839 454.885L281.049 455.951Z"
            fill="#2E60BD" stroke="#2E60BD" stroke-width="0.57561" stroke-linecap="round"
            stroke-linejoin="round" />
        <path d="M277.198 476.463C277.127 476.96 281.395 485.24 281.395 485.24L278.303 489.1"
            stroke="#2E60BD" stroke-width="0.57561" stroke-linecap="round" stroke-linejoin="round" />
        <path
            d="M304.482 492.914C296.477 496.454 287.444 496.906 279.125 494.183C281.029 491.114 284.381 486.442 284.381 486.442C284.381 486.442 288.978 489.469 299.673 487.208L304.482 492.914Z"
            fill="#2E60BD" stroke="#2E60BD" stroke-width="0.57561" stroke-linecap="round"
            stroke-linejoin="round" />
        <path
            d="M395.488 145.447C394.016 135.288 396.65 127.502 399.145 118.527C400.438 113.842 399.577 107.916 398.572 103.615C398.129 101.675 397.58 99.7619 396.927 97.8831"
            stroke="#E9622B" stroke-width="0.57561" stroke-linecap="round" stroke-linejoin="round" />
        <path d="M373.58 130.87C371.846 124.027 370.588 117.071 369.815 110.053" stroke="white"
            stroke-width="0.57561" stroke-linecap="round" stroke-linejoin="round" />
        <path
            d="M288.708 154.138C288.708 154.138 288.591 155.943 291.478 162.286C294.365 168.629 296.569 181.273 295.858 185.564C295.148 189.856 295.301 193.443 297.138 195.489C298.974 197.534 299.461 200.098 297.243 201.389C295.024 202.681 291.751 201.595 293.222 205.73C294.692 209.865 292.207 209.946 291.361 211.254C290.979 211.848 289.406 215.037 287.687 218.377C285.644 222.465 283.515 226.743 283.515 226.743C284.657 228.038 285.78 229.243 286.907 230.367C288.551 232.03 290.287 233.599 292.108 235.068C304.065 244.743 314.087 244.975 321.336 245.519C330.254 246.201 329.929 242.481 335.898 241.33C342.103 240.217 348.137 238.302 353.849 235.633C358.458 233.737 363.4 232.784 368.383 232.829C369.604 232.803 370.666 232.79 371.327 232.766C372.878 232.818 374.422 232.992 375.945 233.288C376.975 233.438 378.041 233.596 379.044 233.691C381.071 233.868 382.824 233.784 383.48 232.926C384.096 232.07 384.407 231.033 384.366 229.979C384.373 225.098 379.497 218.095 378.829 216.084C378.007 213.607 381.128 213.219 381.455 210.036C381.782 206.852 375.108 202.818 376.511 189.585C377.567 179.582 376.076 154.039 374.731 139.971"
            stroke="#E9622B" stroke-width="0.57561" stroke-linecap="round" stroke-linejoin="round" />
        <path
            d="M374.745 140.004C375.348 139.837 388.458 143.48 395.477 145.449L397.61 146.051L399.837 146.679"
            stroke="#E9622B" stroke-width="0.57561" stroke-linecap="round" stroke-linejoin="round" />
        <path
            d="M354.457 133.891L356.697 144.463C356.71 144.487 356.718 144.514 356.721 144.541C356.723 144.568 356.72 144.596 356.71 144.622C356.693 144.643 356.672 144.661 356.647 144.673C356.622 144.685 356.595 144.691 356.568 144.691L353.879 144.927C353.822 144.932 353.764 144.917 353.716 144.884C353.689 144.867 353.666 144.845 353.648 144.819C353.63 144.793 353.618 144.764 353.611 144.733L351.917 136.742L351.112 136.813C351.081 136.816 351.049 136.813 351.019 136.804C350.988 136.795 350.96 136.78 350.936 136.76C350.887 136.722 350.854 136.668 350.843 136.608L350.339 134.251C350.326 134.227 350.318 134.201 350.315 134.174C350.313 134.146 350.316 134.119 350.325 134.093C350.344 134.07 350.368 134.052 350.394 134.04C350.421 134.027 350.45 134.021 350.479 134.022L354.2 133.696C354.258 133.689 354.317 133.705 354.364 133.739C354.412 133.777 354.446 133.831 354.457 133.891Z"
            fill="white" />
        <path
            d="M358.711 133.509C359.23 133.206 359.813 133.025 360.413 132.983C361.041 132.925 361.674 132.998 362.272 133.197C362.89 133.419 363.459 133.757 363.949 134.194C364.505 134.679 364.967 135.262 365.311 135.915C365.726 136.683 366.025 137.508 366.199 138.363C366.404 139.182 366.478 140.028 366.419 140.87C366.364 141.539 366.159 142.186 365.818 142.763C365.521 143.273 365.103 143.702 364.602 144.013C364.082 144.316 363.499 144.496 362.899 144.539C362.271 144.597 361.638 144.524 361.04 144.324C360.422 144.103 359.853 143.765 359.364 143.328C358.807 142.843 358.346 142.26 358.002 141.607C357.587 140.839 357.287 140.014 357.113 139.158C356.908 138.34 356.834 137.493 356.894 136.651C356.948 135.983 357.153 135.336 357.494 134.759C357.791 134.249 358.209 133.82 358.711 133.509ZM361.06 140.768C361.183 140.958 361.352 141.113 361.551 141.22C361.75 141.326 361.973 141.38 362.199 141.377C362.405 141.353 362.598 141.264 362.75 141.123C362.902 140.982 363.005 140.797 363.045 140.594C363.208 139.941 363.199 139.256 363.02 138.607C362.902 137.914 362.626 137.258 362.212 136.689C362.09 136.499 361.921 136.344 361.721 136.237C361.522 136.131 361.299 136.077 361.073 136.08C360.867 136.104 360.675 136.193 360.523 136.334C360.371 136.474 360.267 136.66 360.227 136.863C360.064 137.516 360.073 138.201 360.252 138.85C360.371 139.539 360.647 140.191 361.059 140.756L361.06 140.768Z"
            fill="white" />
        <path
            d="M401.196 143.268C399.052 134.574 402.265 130.92 403.839 126.188C405.414 121.455 406.668 110.566 402.493 99.8203L396.915 97.8622C393.85 96.8043 390.61 95.6933 387.397 94.5112C374.266 89.716 364.823 85.6498 350.438 83.7535"
            stroke="#E9622B" stroke-width="0.57561" stroke-linecap="round" stroke-linejoin="round" />
        <path
            d="M274.486 157.383C275.559 157.635 276.648 157.815 277.745 157.921V157.921C279.41 156.049 281.1 154.198 282.733 152.352C277.408 152.635 269.423 151.39 267.027 146.867C265.518 144.433 263.682 142.217 261.57 140.281C259.164 137.999 258.763 133.668 258.782 131.803C258.627 128.759 257.789 125.789 256.33 123.113L256.193 122.976C252.793 126.451 250.531 128.821 250.531 128.821C251.744 131.011 252.568 133.395 252.965 135.867C253.377 139.397 257.166 142.461 258.722 144.702C260.278 146.943 259.162 150.379 265.95 154.152C268.585 155.605 271.411 156.681 274.346 157.349L274.459 157.339"
            stroke="#E9622B" stroke-width="0.57561" stroke-linecap="round" stroke-linejoin="round" />
        <path
            d="M326.674 78.8039C329.612 78.5468 331.786 75.9565 331.529 73.0182C331.272 70.0798 328.681 67.9063 325.743 68.1633C322.805 68.4204 320.631 71.0108 320.888 73.9491C321.145 76.8874 323.736 79.061 326.674 78.8039Z"
            fill="#E3F0FF" />
        <path
            d="M213.606 341.211C213.523 341.573 204.556 332.493 202.195 329.156C201.938 327.132 208.715 310.788 213.953 312.387C219.191 313.986 217.718 312.309 217.718 312.309L226.649 319.666C226.649 319.666 217.062 325.455 213.606 341.211Z"
            fill="#2E60BD" />
    </g>
    <defs>
        <clipPath id="clip0_7412_2269">
            <rect width="592" height="638" fill="white" transform="translate(0 -61)" />
        </clipPath>
    </defs>
</svg>
    